# xmcd CD database file
#
# Track frame offsets:
#	150
#	12746
#	26963
#	42146
#	55652
#	75888
#	90298
#	110340
#	124542
#	135339
#	153291
#	165371
#	176571
#	190796
#	200834
#	213944
#	226998
#	237457
#	250259
#	260802
#
# Disc length: 3662 seconds
#
# Revision: 0
# Processed by: cddbd v1.5.2PL0 Copyright (c) Steve Scherf et al.
# Submitted via: CDex 1.70beta2
#
DISCID=000e4c14
DTITLE=John Lee Hooker - CD-1
DYEAR=2008
DGENRE=Blues
TTITLE0=Hobo Blues
TTITLE1=Catfish
TTITLE2=Just Me And My Telephone
TTITLE3=John L's House Rent Boogie
TTITLE4=Baby Baby
TTITLE5=Blues For Big Town
TTITLE6=Dazie Mae
TTITLE7=Goin' South
TTITLE8=Gotta Boogie
TTITLE9=House Rent Boogie
TTITLE10=Guitar Lovin' Man
TTITLE11=What Do You Say
TTITLE12=I Need Love So Bad
TTITLE13=I Wanna Walk
TTITLE14=I Want To Hug You
TTITLE15=I'm So Excited
TTITLE16=Keep Your Hands To Yourself
TTITLE17=She Shot Me Down
TTITLE18=Wand Ad Blues
TTITLE19=The Numbers
EXTD=YEAR: 2008
EXTT0=
EXTT1=
EXTT2=
EXTT3=
EXTT4=
EXTT5=
EXTT6=
EXTT7=
EXTT8=
EXTT9=
EXTT10=
EXTT11=
EXTT12=
EXTT13=
EXTT14=
EXTT15=
EXTT16=
EXTT17=
EXTT18=
EXTT19=
PLAYORDER=
